<?xml version="1.0" encoding="UTF-8"?>
<svg width="214px" height="26px" viewBox="0 0 214 26" version="1.1" xmlns="http://www.w3.org/2000/svg" xmlns:xlink="http://www.w3.org/1999/xlink">
    <!-- Generator: Sketch 53.2 (72643) - https://sketchapp.com -->
    <title>Group 32</title>
    <desc>Created with Sketch.</desc>
    <defs>
        <polygon id="path-1" points="0.0409905091 0.177183607 14.4299401 0.177183607 14.4299401 18.7540984 0.0409905091 18.7540984"></polygon>
    </defs>
    <g id="PC" stroke="none" stroke-width="1" fill="none" fill-rule="evenodd">
        <g id="PC｜トップ" transform="translate(-140.000000, -35.000000)">
            <g id="03/PC/Header">
                <g id="global-nav">
                    <g id="Group-32" transform="translate(140.000000, 35.000000)">
                        <path d="M56.1960665,1.0541082 C57.5256961,1.10056721 58.6136526,1.12400984 59.4607897,1.12400984 C60.3074999,1.12400984 61.4010072,1.10056721 62.7404575,1.0541082 C64.0799077,1.00764918 65.1533467,0.974403279 65.9612013,0.95607541 C66.4535144,0.95607541 67.1328467,0.862731148 68.0000521,0.675190164 L68.5611097,4.96263279 C68.4231938,5.09348525 68.1571824,5.15869836 67.7635028,5.15869836 C67.6059455,5.15869836 67.5073121,5.11223934 67.4680295,5.01889508 C67.1917705,3.99168197 66.8275528,3.29564918 66.3749493,2.93122295 C65.9214917,2.56679672 65.2122705,2.38479672 64.2472856,2.38479672 C62.4155223,2.38479672 61.459931,2.54378033 61.3813659,2.86132131 C61.2041673,3.40305902 61.1153546,4.2810918 61.1153546,5.49499344 L61.1153546,15.6098459 C61.1153546,16.6191574 61.2041673,17.4315508 61.3813659,18.0474525 C61.4010072,18.1791574 61.6670185,18.3138459 62.1793999,18.4540754 C62.6913542,18.5943049 63.0359307,18.6642066 63.2135562,18.6642066 C63.2921214,18.6642066 63.331404,18.8325672 63.331404,19.1684361 C63.331404,19.3555508 63.3117627,19.5047311 63.2724801,19.6168295 C63.0162894,19.5980754 62.6371272,19.5699443 62.1349935,19.5328623 C61.6324328,19.4957803 61.1695816,19.467223 60.746013,19.4484689 C60.3224444,19.4305672 59.9138203,19.4207639 59.5201406,19.4207639 C58.9881179,19.4207639 58.2541316,19.4484689 57.3186087,19.5047311 C56.3830857,19.5609934 55.8066567,19.5980754 55.5901755,19.6168295 C55.5111834,19.5422393 55.4723278,19.3926328 55.4723278,19.1684361 C55.4723278,18.8325672 55.5111834,18.6642066 55.5901755,18.6642066 C55.8267249,18.6642066 56.1960665,18.5989934 56.6982002,18.468141 C57.2007609,18.3377148 57.4812897,18.1979115 57.5402136,18.0474525 C57.6977709,17.5436492 57.776763,16.7683377 57.776763,15.7223705 L57.776763,5.57896066 C57.776763,4.02876393 57.6879502,3.12302623 57.5107517,2.86132131 C57.3527674,2.54378033 56.4176714,2.38479672 54.7037558,2.38479672 C53.7387709,2.38479672 53.0295497,2.56679672 52.5765191,2.93122295 C52.1230616,3.29564918 51.7490232,3.98187869 51.453977,4.99076393 C51.4339087,5.1028623 51.3357023,5.15869836 51.1585037,5.15869836 C50.7840383,5.15869836 50.5278477,5.0841082 50.3899317,4.93450164 L50.9514163,0.675190164 C51.8181947,0.862731148 52.497527,0.95607541 52.9902671,0.95607541 C53.7976947,0.974403279 54.8664369,1.00764918 56.1960665,1.0541082" id="Fill-1" fill="#FFFFFF"></path>
                        <path d="M81.2722239,7.11995082 C83.7935672,7.11995082 85.0540253,8.95998361 85.0540253,12.6400492 L85.0540253,15.5260492 C85.0540253,16.6657869 85.1330175,17.5058852 85.2905747,18.047623 C85.310216,18.1789016 85.5711035,18.3140164 86.0736643,18.4542459 C86.575798,18.5944754 86.9156776,18.664377 87.0928762,18.664377 C87.152227,18.664377 87.1863858,18.799918 87.1966334,19.0705738 C87.2060271,19.3416557 87.2009033,19.5236557 87.181689,19.6165738 C87.043773,19.5978197 86.5168741,19.5607377 85.6009925,19.5049016 C84.6851108,19.4486393 84.0100483,19.4205082 83.5766591,19.4205082 C83.084346,19.4205082 82.4195312,19.4486393 81.5826416,19.5049016 C80.7453251,19.5607377 80.2282469,19.5978197 80.031407,19.6165738 C79.9724832,19.5424098 79.9425943,19.3650984 79.9425943,19.0846393 C79.9425943,18.8046066 79.9724832,18.664377 80.031407,18.664377 C80.2675294,18.664377 80.6074091,18.5944754 81.050619,18.4542459 C81.4938288,18.3140164 81.7448957,18.1789016 81.8042465,18.047623 C81.9220943,17.4871311 81.9814451,16.8060164 81.9814451,16.0025738 L81.9814451,13.256377 C81.9814451,11.7061803 81.7598402,10.6367705 81.3166303,10.0481475 C80.8734204,9.45952459 80.168896,9.16542623 79.2039111,9.16542623 C78.6129646,9.16542623 78.0711213,9.32440984 77.5792352,9.64195082 C77.0864951,9.9594918 76.8405521,10.314541 76.8405521,10.7066721 L76.8405521,15.5260492 C76.8405521,16.6657869 76.9186903,17.5058852 77.0766745,18.047623 C77.1159571,18.1789016 77.3768446,18.3140164 77.859764,18.4542459 C78.3422565,18.5944754 78.6723155,18.664377 78.849514,18.664377 C78.9084379,18.664377 78.9425966,18.799918 78.9528443,19.0705738 C78.9626649,19.3416557 78.9477204,19.5236557 78.9084379,19.6165738 C78.7508806,19.5978197 78.2338024,19.5607377 77.3576303,19.5049016 C76.4806042,19.4486393 75.8157894,19.4205082 75.3631858,19.4205082 C74.890087,19.4205082 74.2056309,19.4486393 73.3093905,19.5049016 C72.4127231,19.5607377 71.8862513,19.5978197 71.728694,19.6165738 C71.6497019,19.5424098 71.6104193,19.3650984 71.6104193,19.0846393 C71.6104193,18.8046066 71.6497019,18.664377 71.728694,18.664377 C71.9652434,18.664377 72.3243374,18.5944754 72.8072568,18.4542459 C73.2897492,18.3140164 73.5506368,18.1789016 73.5903463,18.047623 C73.7278353,17.4871311 73.7970068,16.8149672 73.7970068,16.0302787 L73.7970068,4.37418033 C73.7970068,3.62742623 73.7474766,2.99191803 73.6492702,2.46893443 C73.5506368,2.17057377 73.0386824,2.02054098 72.11298,2.02054098 L71.8469687,2.02054098 C71.728694,2.02054098 71.6697702,1.87136066 71.6697702,1.57214754 C71.6697702,1.27336066 71.728694,1.12418033 71.8469687,1.12418033 C72.4571295,1.06791803 73.0386824,0.993327869 73.5903463,0.899557377 C74.1415833,0.806213115 74.5997376,0.713295082 74.9639553,0.61952459 C75.3286001,0.526180328 75.6437146,0.433262295 75.909299,0.339491803 C76.1753103,0.246147541 76.4562661,0.152803279 76.7517393,0.0594590164 L76.8106632,0.0594590164 C76.8892283,0.0594590164 76.9682204,0.111032787 77.0472126,0.213327869 C77.1257777,0.31604918 77.1748809,0.414081967 77.1949492,0.50742623 C76.9583998,1.23585246 76.8405521,2.11431148 76.8405521,3.14152459 L76.8405521,8.801 C76.8405521,8.91352459 76.8794077,8.96936066 76.9583998,8.96936066 C76.9780411,8.96936066 77.0177506,8.94122951 77.0766745,8.88539344 C77.4904225,8.437 78.0963134,8.03080328 78.8939204,7.66637705 C79.6915274,7.30237705 80.4844376,7.11995082 81.2722239,7.11995082" id="Fill-3" fill="#FFFFFF"></path>
                        <path d="M92.2362457,3.79962295 C91.8818486,3.45395082 91.7042231,3.0434918 91.7042231,2.56654098 C91.7042231,2.09044262 91.8818486,1.6842459 92.2362457,1.34837705 C92.5910698,1.01165574 93.0240321,0.843295082 93.5364134,0.843295082 C94.0483678,0.843295082 94.481757,1.01165574 94.8365811,1.34837705 C95.1909782,1.6842459 95.3681768,2.09044262 95.3681768,2.56654098 C95.3681768,3.0434918 95.1909782,3.45395082 94.8365811,3.79962295 C94.481757,4.14572131 94.0483678,4.31834426 93.5364134,4.31834426 C93.0240321,4.31834426 92.5910698,4.14572131 92.2362457,3.79962295 L92.2362457,3.79962295 Z M95.3092529,15.5260492 C95.3092529,16.6657869 95.3878181,17.5058852 95.5453753,18.047623 C95.5846579,18.1789016 95.8506692,18.3140164 96.3434093,18.4542459 C96.8352954,18.5944754 97.1704782,18.664377 97.3481038,18.664377 C97.4266689,18.664377 97.4706483,18.799918 97.4808959,19.0705738 C97.4907166,19.3416557 97.4757721,19.5236557 97.4364896,19.6165738 C97.2985736,19.5978197 96.7716747,19.5611639 95.8557931,19.5049016 C94.9399114,19.4486393 94.2648489,19.4205082 93.8318867,19.4205082 C93.3391466,19.4205082 92.6448698,19.4486393 91.7486294,19.5049016 C90.852389,19.5611639 90.3353108,19.5978197 90.1978219,19.6165738 C90.1188297,19.5424098 90.0795472,19.3650984 90.0795472,19.0846393 C90.0795472,18.8046066 90.1188297,18.664377 90.1978219,18.664377 C90.414303,18.664377 90.7687001,18.5944754 91.2614402,18.4542459 C91.7537533,18.3140164 92.0193376,18.1789016 92.0590472,18.047623 C92.1965362,17.4871311 92.2657076,16.8060164 92.2657076,16.0025738 L92.2657076,11.4350984 C92.2657076,10.5570656 92.1081504,9.9594918 91.7930358,9.64195082 C91.6158373,9.45568852 91.3891085,9.31503279 91.1137035,9.22168852 C90.8374446,9.12834426 90.6013222,9.07208197 90.4044823,9.05332787 C90.2076425,9.035 90.1090091,9.00729508 90.1090091,8.96936066 C90.1090091,8.42762295 90.1679329,8.14759016 90.2862076,8.12883607 C90.8374446,8.0917541 91.6354786,7.97965574 92.6794556,7.79254098 C93.7234326,7.60627869 94.5013983,7.43791803 95.0137797,7.28831148 C95.032994,7.28831148 95.1119861,7.26998361 95.2503291,7.23247541 C95.3485355,7.23247541 95.4275276,7.29811475 95.4864515,7.42854098 C95.5453753,7.55896721 95.5650166,7.66254098 95.5453753,7.73627869 C95.3878181,8.93227869 95.3092529,9.73572131 95.3092529,10.1466066 L95.3092529,15.5260492 Z" id="Fill-5" fill="#FFFFFF"></path>
                        <path d="M109.235138,7.11995082 C110.317971,7.11995082 111.126252,7.42854098 111.657848,8.04486885 C111.657848,9.633 111.185176,10.4266393 110.239832,10.4266393 C109.885008,10.4266393 109.501149,10.2395246 109.087401,9.86614754 C108.673653,9.49277049 108.249658,9.30565574 107.817122,9.30565574 C107.206108,9.30565574 106.728312,9.5997541 106.383736,10.188377 C106.039159,10.7765738 105.866657,11.3890656 105.866657,12.0237213 L105.866657,15.5260492 C105.866657,16.6657869 105.935402,17.5058852 106.073745,18.047623 C106.113027,18.1789016 106.373915,18.3140164 106.856407,18.4542459 C107.339327,18.5944754 107.668959,18.664377 107.846157,18.664377 C107.905508,18.664377 107.939667,18.799918 107.949488,19.0705738 C107.959735,19.3416557 107.954611,19.5236557 107.93497,19.6165738 C107.777413,19.5978197 107.255638,19.5607377 106.369218,19.5049016 C105.482371,19.4486393 104.81286,19.4205082 104.359829,19.4205082 C103.887157,19.4205082 103.202701,19.4486393 102.306461,19.5049016 C101.409794,19.5607377 100.882895,19.5978197 100.725764,19.6165738 C100.646772,19.5424098 100.60749,19.3650984 100.60749,19.0846393 C100.60749,18.8046066 100.646772,18.664377 100.725764,18.664377 C100.962314,18.664377 101.321408,18.5944754 101.8039,18.4542459 C102.28682,18.3140164 102.54728,18.1789016 102.58699,18.047623 C102.724479,17.4871311 102.794077,16.8060164 102.794077,16.0025738 L102.794077,11.4350984 C102.794077,10.5570656 102.636093,9.9594918 102.321405,9.64195082 C102.163421,9.4552623 101.941816,9.31503279 101.656164,9.22168852 C101.370511,9.12834426 101.134389,9.07208197 100.947369,9.05332787 C100.759923,9.035 100.666414,9.00729508 100.666414,8.96936066 C100.666414,8.42762295 100.715517,8.14759016 100.81415,8.12883607 C101.720211,8.0542459 103.306032,7.77421311 105.571184,7.28831148 C105.7091,7.25122951 105.787665,7.23247541 105.807734,7.23247541 C105.886299,7.23247541 105.95547,7.29811475 106.014394,7.42854098 C106.073745,7.55896721 106.098083,7.66637705 106.088262,7.75034426 C106.078015,7.8347377 106.063497,7.96559016 106.043856,8.14290164 C106.024215,8.32021311 105.99945,8.50732787 105.970415,8.70339344 C105.940526,8.89945902 105.926008,9.02562295 105.926008,9.08145902 C106.280405,8.57722951 106.762898,8.12414754 107.373913,7.72221311 C107.984073,7.32113115 108.604482,7.11995082 109.235138,7.11995082" id="Fill-7" fill="#FFFFFF"></path>
                        <path d="M120.814999,8.40903934 C119.770595,8.40903934 118.982809,8.82930164 118.451213,9.66982623 C117.919191,10.510777 117.653606,11.6407115 117.653606,13.0600557 C117.653606,14.6486131 117.9589,15.8859574 118.569061,16.772941 C119.179649,17.6603508 120.036607,18.1036295 121.139935,18.1036295 C121.809446,18.1036295 122.35129,17.9403836 122.764611,17.6134656 C123.178358,17.2865475 123.385446,16.8714 123.385446,16.366318 L123.385446,10.4822197 C123.385446,10.2959574 123.350433,10.0998918 123.281689,9.89402295 C123.212517,9.68900656 123.094669,9.46949836 122.927292,9.23549836 C122.759914,9.00235082 122.494329,8.80628525 122.129685,8.64730164 C121.76504,8.48874426 121.326954,8.40903934 120.814999,8.40903934 M121.080584,7.06428525 C121.927294,7.06428525 122.646763,7.19471148 123.237709,7.45641639 C123.335916,7.45641639 123.385446,7.30680984 123.385446,7.00802295 L123.385446,4.37392459 C123.385446,3.66425246 123.326522,3.02959672 123.20782,2.46867869 C123.109187,2.17031803 122.59766,2.02071148 121.671957,2.02071148 L121.435408,2.02071148 C121.317133,2.02071148 121.257782,1.87110492 121.257782,1.57231803 C121.257782,1.27353115 121.317133,1.12392459 121.435408,1.12392459 C122.026354,1.0676623 122.602783,0.993498361 123.163841,0.899727869 C123.724899,0.806383607 124.18775,0.713039344 124.552394,0.619695082 C124.916612,0.52635082 125.232154,0.433006557 125.498165,0.339236066 C125.764176,0.246318033 125.965713,0.175990164 126.103629,0.129104918 C126.241545,0.0826459016 126.320537,0.0592032787 126.339751,0.0592032787 L126.399102,0.0592032787 C126.477667,0.0592032787 126.55666,0.110777049 126.635652,0.213072131 C126.71379,0.316219672 126.753499,0.41382623 126.753499,0.507596721 C126.55666,1.23602295 126.458453,2.11405574 126.458453,3.14169508 L126.458453,15.4699574 C126.458453,16.3296623 126.51695,17.0205803 126.635652,17.5435639 C126.655293,17.6739902 126.753499,17.7771377 126.930698,17.8513016 C127.108324,17.926318 127.295343,17.9732033 127.49261,17.9915311 C127.689449,18.0107115 127.876469,18.024777 128.053667,18.0337279 C128.230866,18.0435311 128.329499,18.0473672 128.349567,18.0473672 C128.388423,18.0853016 128.408064,18.1978262 128.408064,18.3840885 C128.408064,18.7578918 128.349567,18.9445803 128.230866,18.9445803 C127.955034,18.9633344 127.605333,19.0008426 127.182192,19.0562525 C126.758623,19.1125148 126.344875,19.1734656 125.941375,19.2386787 C125.537448,19.304318 125.153162,19.3695311 124.788944,19.4347443 C124.424299,19.5003836 124.015675,19.5792361 123.562644,19.6730066 C123.44437,19.6730066 123.385446,19.514023 123.385446,19.1969082 L123.385446,18.7203836 C123.385446,18.6645475 123.370501,18.6270393 123.34104,18.6082852 C123.311578,18.5899574 123.286813,18.5899574 123.267171,18.6082852 C122.321401,19.2996295 121.297492,19.6444492 120.194591,19.6444492 C118.59895,19.6444492 117.210397,19.0894984 116.028077,17.9774656 C114.846184,16.8667115 114.255664,15.4699574 114.255664,13.7889082 C114.255664,11.9394984 114.930299,10.356482 116.27957,9.03943279 C117.628414,7.72238361 119.229179,7.06428525 121.080584,7.06428525" id="Fill-9" fill="#FFFFFF"></path>
                        <path d="M139.020208,5.77506885 C139.020208,4.37405246 139.640617,3.19254426 140.881433,2.23097049 C142.122677,1.26897049 143.521051,0.787757377 145.07741,0.787757377 C145.628647,0.787757377 146.111139,0.815462295 146.524887,0.87172459 C146.938635,0.927560656 147.515064,1.04477377 148.253747,1.22208525 C148.992003,1.39939672 149.499261,1.51618361 149.775093,1.5724459 C150.011642,2.84260984 150.129917,4.28113443 150.129917,5.88716721 C150.090207,6.05510164 149.971933,6.13906885 149.775093,6.13906885 C149.24307,6.13906885 148.957418,6.05510164 148.918562,5.88716721 C148.800287,5.02831475 148.376292,4.18779016 147.647856,3.36559344 C146.918994,2.54382295 146.032574,2.13251148 144.989024,2.13251148 C144.082109,2.13251148 143.387832,2.3754623 142.905767,2.86136393 C142.422847,3.34726557 142.181601,4.00067541 142.181601,4.82287213 C142.181601,5.10290492 142.21576,5.36887213 142.284931,5.6212 C142.354103,5.87310164 142.492019,6.12116721 142.698679,6.3636918 C142.905767,6.60664262 143.072718,6.80739672 143.20124,6.9659541 C143.329335,7.1249377 143.575278,7.32611803 143.939496,7.56821639 C144.304141,7.81159344 144.550084,7.97952787 144.678606,8.07287213 C144.806275,8.16621639 145.101748,8.34864262 145.564599,8.61929836 C146.02745,8.89038033 146.307979,9.04424918 146.407039,9.08133115 C146.524887,9.17552787 146.854946,9.37542951 147.396789,9.68401967 C147.938633,9.99260984 148.317368,10.2163803 148.534276,10.3566098 C148.750757,10.4964131 149.065872,10.7346754 149.47962,11.0709705 C149.893368,11.4072656 150.193538,11.7248066 150.380984,12.0235934 C150.568003,12.3223803 150.740078,12.7008721 150.898062,13.1582164 C151.055619,13.6159869 151.134185,14.106577 151.134185,14.6291344 C151.134185,16.1239213 150.499259,17.3570033 149.228553,18.3279541 C147.958274,19.2993311 146.485178,19.7848066 144.811399,19.7848066 C143.629505,19.7848066 141.817383,19.5235279 139.374605,19.0005443 C139.197407,18.3279541 139.035153,17.4831672 138.886989,16.4644787 C138.739679,15.4466426 138.665811,14.7791672 138.665811,14.4612 C138.685452,14.3115934 138.84301,14.2374295 139.138483,14.2374295 C139.650864,14.2374295 139.936517,14.3115934 139.995441,14.4612 C140.074006,14.7974951 140.211922,15.1666098 140.409189,15.568118 C140.605601,15.9700525 140.876737,16.3996918 141.221313,16.8570361 C141.56589,17.3148066 142.029168,17.6881836 142.610294,17.9775934 C143.191419,18.2678557 143.846414,18.4119213 144.575276,18.4119213 C145.500978,18.4119213 146.269123,18.1506426 146.879711,17.627659 C147.490299,17.1046754 147.795593,16.3199869 147.795593,15.2740197 C147.795593,14.9564787 147.731545,14.6483148 147.603877,14.3491016 C147.475355,14.050741 147.327618,13.7979869 147.16024,13.5929705 C146.992862,13.3871016 146.746919,13.1633311 146.421557,12.9203803 C146.096622,12.6774295 145.825487,12.490741 145.609432,12.3598885 C145.392524,12.2294623 145.072286,12.0470361 144.649144,11.8134623 C144.225149,11.5798885 143.924979,11.4166426 143.74778,11.3232984 C143.688856,11.2670361 143.580402,11.1928721 143.422845,11.0986754 C142.85154,10.7623803 142.418151,10.5011016 142.122677,10.3144131 C141.827204,10.1277246 141.448042,9.8519541 140.985191,9.48752787 C140.52234,9.12310164 140.172639,8.78297049 139.936517,8.46542951 C139.699967,8.1474623 139.488183,7.75533115 139.300737,7.28818361 C139.113718,6.8214623 139.020208,6.31680656 139.020208,5.77506885" id="Fill-11" fill="#FFFFFF"></path>
                        <path d="M161.11042,7.11995082 C162.154397,7.11995082 163.085224,7.28404918 163.902472,7.61011475 C164.71972,7.93745902 165.30597,8.29719672 165.660367,8.68932787 C165.660367,9.32440984 165.547216,9.85208197 165.320914,10.2723443 C165.094186,10.6926066 164.754306,10.9027377 164.301702,10.9027377 C163.927237,10.9027377 163.627067,10.8093934 163.400338,10.6227049 C163.173609,10.4360164 162.942184,10.1278525 162.706061,9.69821311 C162.253031,8.83893443 161.592913,8.40886885 160.726561,8.40886885 C159.878997,8.40886885 159.204789,8.8154918 158.702228,9.62788525 C158.200521,10.4402787 157.949027,11.4632295 157.949027,12.6958852 C157.949027,14.3769344 158.313245,15.624082 159.042108,16.4364754 C159.770543,17.2492951 160.696673,17.6554918 161.819642,17.6554918 C162.115115,17.6554918 162.400341,17.6418525 162.676599,17.6132951 C162.952004,17.5855902 163.208195,17.5391311 163.444745,17.4734918 C163.681294,17.4082787 163.887954,17.3473279 164.065153,17.2910656 C164.242352,17.2352295 164.424674,17.1512623 164.611693,17.0391639 C164.799139,16.9270656 164.931504,16.8477869 165.010924,16.8013279 C165.089062,16.7544426 165.286329,16.6287049 165.60187,16.4224098 C165.640726,16.4415902 165.690256,16.4978525 165.74918,16.5907705 C165.808531,16.6841148 165.837993,16.7778852 165.837993,16.8712295 C165.837993,17.0766721 165.779069,17.2539836 165.660367,17.4035902 C165.365321,17.9078197 164.784195,18.4120492 163.917416,18.9167049 C163.050638,19.4205082 162.085653,19.6728361 161.022035,19.6728361 C159.268836,19.6728361 157.776099,19.0658852 156.545529,17.8515574 C155.314533,16.6376557 154.698822,15.1526721 154.698822,13.3970328 C154.698822,11.6968033 155.289768,10.2258852 156.471661,8.98342623 C157.653554,7.74139344 159.199665,7.11995082 161.11042,7.11995082" id="Fill-13" fill="#FFFFFF"></path>
                        <path d="M175.235494,8.43695738 C174.309364,8.43695738 173.590323,8.8619082 173.078368,9.71180984 C172.565987,10.5621377 172.310223,11.5752852 172.310223,12.7521049 C172.310223,14.2652197 172.630034,15.5822689 173.270511,16.7032525 C173.910134,17.8233836 174.801677,18.3843016 175.944288,18.3843016 C176.86999,18.3843016 177.593729,17.9546623 178.115931,17.0949574 C178.638133,16.2365311 178.89902,15.2276459 178.89902,14.0691541 C178.89902,13.0982033 178.770925,12.1963016 178.515161,11.3651541 C178.258971,10.5340066 177.845223,9.83797377 177.273918,9.2779082 C176.702612,8.71741639 176.02328,8.43695738 175.235494,8.43695738 M175.619353,7.1199082 C177.470757,7.1199082 179.051881,7.7324 180.361869,8.95567869 C181.671431,10.1789574 182.326425,11.6596787 182.326425,13.3969902 C182.326425,15.1338754 181.681251,16.618859 180.391331,17.8515148 C179.100984,19.0845967 177.520288,19.7009246 175.649242,19.7009246 C173.777342,19.7009246 172.191948,19.0845967 170.891781,17.8515148 C169.59204,16.618859 168.94217,15.1338754 168.94217,13.3969902 C168.94217,11.6409246 169.586916,10.1555148 170.877263,8.94161311 C172.167183,7.72771148 173.748307,7.1199082 175.619353,7.1199082" id="Fill-15" fill="#FFFFFF"></path>
                        <g id="Group-19" transform="translate(184.457291, 6.971239)">
                            <mask id="mask-2" fill="white">
                                <use xlink:href="#path-1"></use>
                            </mask>
                            <g id="Clip-18"></g>
                            <path d="M7.45728376,1.66216721 C6.8074134,1.66216721 6.28008758,1.83947869 5.87658725,2.19410164 C5.47265994,2.54957705 5.27069629,3.02567541 5.27069629,3.62367541 L5.27069629,9.39524918 C5.27069629,10.0120033 5.53670761,10.5021672 6.06830328,10.8665934 C6.60032593,11.2305934 7.17120416,11.4130197 7.78221894,11.4130197 C8.68827998,11.4130197 9.45172821,11.0204623 10.0721366,10.2357738 C10.6925451,9.45108525 11.0029628,8.34928197 11.0029628,6.92951148 C11.0029628,5.41682295 10.6874213,4.16029836 10.0571922,3.16121639 C9.42653613,2.16213443 8.56018464,1.66216721 7.45728376,1.66216721 M8.16607798,0.177183607 C9.42653613,0.177183607 10.5495053,0.484921311 11.5345585,1.10167541 C12.5191846,1.71800328 13.2484741,2.46560984 13.7211459,3.34321639 C14.1938177,4.22167541 14.4299401,5.13636393 14.4299401,6.08898689 C14.4299401,8.01298689 13.745911,9.60580656 12.3765718,10.8665934 C11.0072326,12.1273803 9.37743292,12.7573475 7.48674569,12.7573475 C6.91501348,12.7573475 6.21646689,12.6269213 5.38897099,12.3652164 C5.30997886,12.3652164 5.27069629,12.4960689 5.27069629,12.7573475 L5.27069629,14.6630197 C5.27069629,15.8210852 5.34926143,16.6611836 5.50724569,17.1850197 C5.52688697,17.3346262 5.78777448,17.4786918 6.2903352,17.6193475 C6.79204195,17.7591508 7.13192159,17.8294787 7.30912015,17.8294787 C7.36847099,17.8294787 7.40262975,17.9645934 7.41287737,18.2356754 C7.42269802,18.5063311 7.4175742,18.6793803 7.39793292,18.7543967 C7.26001693,18.7543967 6.73354508,18.7258393 5.81723641,18.6700033 C4.90135472,18.613741 4.22671926,18.5860361 3.79333003,18.5860361 C3.30101693,18.5860361 2.60674019,18.613741 1.71049978,18.6700033 C0.813832399,18.7258393 0.286933563,18.7543967 0.129803279,18.7543967 C0.0704524374,18.6793803 0.0409905091,18.5063311 0.0409905091,18.2356754 C0.0409905091,17.9645934 0.0704524374,17.8294787 0.129803279,17.8294787 C0.36592569,17.8294787 0.725019629,17.7591508 1.20793906,17.6193475 C1.69043151,17.4786918 1.96156665,17.3346262 2.02091749,17.1850197 C2.13876521,16.6424295 2.19811605,15.9702656 2.19811605,15.1676754 L2.19811605,4.46377377 C2.19811605,3.56741311 2.03970481,2.9604623 1.72501726,2.64249508 C1.56745999,2.45623279 1.35055188,2.32026557 1.07514689,2.23629836 C0.798887942,2.15190492 0.562765531,2.10075738 0.36592569,2.08200328 C0.16908585,2.06367541 0.0704524374,2.03597049 0.0704524374,1.99803607 C0.0704524374,1.45672459 0.129803279,1.17626557 0.247650992,1.15751148 C1.88257453,1.00833115 3.35012015,0.747052459 4.65028786,0.37324918 C5.00468497,0.279904918 5.19170416,0.232593443 5.21134545,0.232593443 C5.29033758,0.232593443 5.33004713,0.428659016 5.33004713,0.821216393 C5.33004713,0.896232787 5.30997886,1.00833115 5.27069629,1.15751148 C5.58538384,0.933314754 6.02432388,0.714232787 6.58538147,0.498986885 C7.14686605,0.285019672 7.67376488,0.177183607 8.16607798,0.177183607" id="Fill-17" fill="#FFFFFF" mask="url(#mask-2)"></path>
                        </g>
                        <path d="M208.027004,8.40903934 C207.554332,8.40903934 207.130337,8.5398918 206.756298,8.80117049 C206.381833,9.06330164 206.096607,9.38041639 205.899768,9.75379344 C205.702501,10.1275967 205.559888,10.4779574 205.471075,10.8044492 C205.382689,11.1317934 205.337856,11.4071377 205.337856,11.6317607 C205.337856,11.7621869 205.397207,11.8278262 205.515055,11.8278262 L210.301978,11.8278262 C210.479176,11.8278262 210.567562,11.6871705 210.567562,11.4071377 C210.567562,10.7533016 210.336136,10.0900885 209.873285,9.41749836 C209.410434,8.74533443 208.795149,8.40903934 208.027004,8.40903934 M208.233665,7.12012131 C209.159367,7.12012131 209.986863,7.29317049 210.715725,7.63799016 C211.444161,7.98451475 212.015466,8.42310492 212.429641,8.95546557 C212.842962,9.4874 213.158077,10.038941 213.374558,10.6083836 C213.591039,11.1786787 213.699493,11.7246787 213.699493,12.2476623 C213.699493,12.6589738 213.625625,12.9159902 213.478315,13.017859 C213.330578,13.1214328 213.029981,13.1725803 212.576951,13.1725803 L205.515055,13.1725803 C205.377566,13.1725803 205.308394,13.2288426 205.308394,13.3405148 C205.308394,14.0126787 205.436489,14.6673672 205.69268,15.302023 C205.948444,15.9371049 206.386957,16.4882197 207.007365,16.9553672 C207.627774,17.4220885 208.371581,17.6552361 209.238359,17.6552361 C209.533405,17.6552361 209.819058,17.6415967 210.095317,17.6134656 C210.370722,17.5853344 210.626913,17.5393016 210.863462,17.4736623 C211.099585,17.408023 211.306672,17.3474984 211.483871,17.2912361 C211.661069,17.2354 211.843391,17.1514328 212.030411,17.0393344 C212.217003,16.9268098 212.350222,16.8479574 212.429641,16.8010721 C212.507779,16.7546131 212.705046,16.6284492 213.020161,16.4225803 C213.059443,16.4417607 213.108546,16.498023 213.167897,16.5905148 C213.227248,16.6842852 213.25671,16.7780557 213.25671,16.8714 C213.25671,17.0768426 213.197359,17.2541541 213.079085,17.4037607 C212.784038,17.9075639 212.202485,18.4122197 211.336134,18.9164492 C210.469355,19.4206787 209.494123,19.6730066 208.410863,19.6730066 C206.697375,19.6730066 205.220008,19.0707443 203.979192,17.8657934 C202.737948,16.6608426 202.117539,15.1993016 202.117539,13.4807443 C202.117539,11.5942525 202.693541,10.0623836 203.845972,8.8851377 C204.997976,7.70831803 206.460825,7.12012131 208.233665,7.12012131" id="Fill-20" fill="#FFFFFF"></path>
                        <path d="M7.69724903,17.9713279 L0,10.2876885 L6.29759394,4.00122951 L20.2928639,17.9713279 C16.8146484,21.4433934 11.1754645,21.4433934 7.69724903,17.9713279" id="Fill-22" fill="#FFFFFF"></path>
                        <path d="M23.0918325,2.60417705 C26.570048,-0.867888525 32.2092319,-0.867888525 35.6874473,2.60417705 L43.3846964,10.2873902 L37.0866755,16.5742754 L23.0918325,2.60417705 Z" id="Fill-24" fill="#FFFFFF"></path>
                        <path d="M20.2929066,2.60417705 L21.6925617,4.00093115 L15.3945408,10.2873902 L7.69729173,2.60417705 C11.1755072,-0.867888525 16.8146911,-0.867888525 20.2929066,2.60417705 Z M27.9900702,10.2875607 L35.6873193,17.9712 C32.2091038,21.4432656 26.5699199,21.4432656 23.0917044,17.9712 L21.6924763,16.5744459 L27.9900702,10.2875607 Z M21.6924763,4.00105902 L27.9900702,10.287518 L21.6924763,16.5744033 L15.3944554,10.287518 L21.6924763,4.00105902 Z" id="Combined-Shape" fill="#FFFFFF"></path>
                    </g>
                </g>
            </g>
        </g>
    </g>
</svg>